<svg width="22" height="14" xmlns="http://www.w3.org/2000/svg">
  <svg width="10" height="12" viewBox="0 0 8 12" fill="none" xmlns="http://www.w3.org/2000/svg">
<path opacity="0.4" fill-rule="evenodd" clip-rule="evenodd" d="M6.3725 5.08666C6.73684 5.45099 6.73684 6.0417 6.3725 6.40604L1.70778 11.0708C1.34344 11.4351 0.75273 11.4351 0.388392 11.0708C0.024055 10.7064 0.024055 10.1157 0.388393 9.75138L4.39342 5.74635L0.388393 1.74132C0.0240554 1.37698 0.0240555 0.786272 0.388393 0.421935C0.75273 0.057597 1.34344 0.057597 1.70778 0.421935L6.3725 5.08666Z" fill="#263238"/>
</svg>
<svg width="20" height="12" viewBox="0 0 8 12" fill="none" xmlns="http://www.w3.org/2000/svg">
<path opacity="0.6" fill-rule="evenodd" clip-rule="evenodd" d="M6.97015 5.08666C7.33449 5.45099 7.33449 6.0417 6.97015 6.40604L2.30543 11.0708C1.94109 11.4351 1.35039 11.4351 0.986049 11.0708C0.621711 10.7064 0.621711 10.1157 0.986049 9.75138L4.99108 5.74635L0.986049 1.74132C0.621712 1.37698 0.621712 0.786272 0.986049 0.421935C1.35039 0.057597 1.94109 0.057597 2.30543 0.421935L6.97015 5.08666Z" fill="#263238"/>
</svg>
<svg width="32" height="12" viewBox="0 0 8 12" fill="none" xmlns="http://www.w3.org/2000/svg">
<path fill-rule="evenodd" clip-rule="evenodd" d="M6.56781 5.08666C6.93215 5.45099 6.93215 6.0417 6.56781 6.40604L1.90309 11.0708C1.53875 11.4351 0.948042 11.4351 0.583705 11.0708C0.219368 10.7064 0.219368 10.1157 0.583705 9.75138L4.58874 5.74635L0.583705 1.74132C0.219368 1.37698 0.219368 0.786272 0.583705 0.421935C0.948043 0.057597 1.53875 0.057597 1.90309 0.421935L6.56781 5.08666Z" fill="#263238"/>
</svg>
</svg>